<svg width="192" height="75" viewBox="0 0 192 75" fill="none" xmlns="http://www.w3.org/2000/svg">
<line y1="-3.5" x2="32.5675" y2="-3.5" transform="matrix(0.660884 0.750488 -0.781041 0.62448 0 44.9846)" stroke="#B90000" stroke-width="7"/>
<line y1="-3.5" x2="49.8488" y2="-3.5" transform="matrix(0.660884 0.750488 -0.781041 0.62448 8.98206 29)" stroke="#B90000" stroke-width="7"/>
<line y1="-3.5" x2="32.5675" y2="-3.5" transform="matrix(0.660884 -0.750488 0.781041 0.62448 170.477 70.4415)" stroke="#B90000" stroke-width="7"/>
<line y1="-3.5" x2="49.8488" y2="-3.5" transform="matrix(0.660884 -0.750488 0.781041 0.62448 153.222 67.4109)" stroke="#B90000" stroke-width="7"/>
<line x1="47.4874" y1="70.8528" x2="148.004" y2="70.8528" stroke="#B90000" stroke-width="7"/>
<line y1="-3.5" x2="32.5675" y2="-3.5" transform="matrix(0.660884 -0.750488 -0.781041 -0.62448 0 29.3682)" stroke="#B90000" stroke-width="7"/>
<line y1="-3.5" x2="49.8488" y2="-3.5" transform="matrix(0.660884 -0.750488 -0.781041 -0.62448 8.98206 45.3528)" stroke="#B90000" stroke-width="7"/>
<line y1="-3.5" x2="32.5675" y2="-3.5" transform="matrix(0.660884 0.750488 0.781041 -0.62448 170.477 3.91125)" stroke="#B90000" stroke-width="7"/>
<line y1="-3.5" x2="49.8488" y2="-3.5" transform="matrix(0.660884 0.750488 0.781041 -0.62448 153.222 6.94189)" stroke="#B90000" stroke-width="7"/>
<line y1="-3.5" x2="100.517" y2="-3.5" transform="matrix(1 0 0 -1 47.4874 0)" stroke="#B90000" stroke-width="7"/>
<path d="M70.51 36.644C71.238 36.644 71.812 36.896 72.232 37.4C72.652 37.904 72.862 38.604 72.862 39.5C72.862 39.724 72.848 39.962 72.82 40.214C72.792 40.438 72.75 40.634 72.694 40.802C72.106 40.662 71.462 40.578 70.762 40.55C70.594 41.782 70.146 43.084 69.418 44.456C68.69 45.8 67.808 47.074 66.772 48.278C65.736 49.454 64.602 50.49 63.37 51.386C62.138 52.282 60.92 52.884 59.716 53.192C55.964 53.108 53.22 52.128 51.484 50.252C49.776 48.404 48.922 45.506 48.922 41.558C48.922 38.674 49.454 35.888 50.518 33.2C51.582 30.484 52.996 28.076 54.76 25.976C56.524 23.876 58.54 22.196 60.808 20.936C63.104 19.648 65.484 19.004 67.948 19.004C69.88 19.004 71.378 19.41 72.442 20.222C73.534 21.034 74.08 22.182 74.08 23.666C74.08 24.646 73.842 25.556 73.366 26.396C72.918 27.236 72.162 28.146 71.098 29.126C70.454 28.93 69.894 28.594 69.418 28.118C68.942 27.614 68.648 27.04 68.536 26.396C69.488 25.696 70.16 25.052 70.552 24.464C70.944 23.876 71.14 23.176 71.14 22.364C71.14 21.076 70.37 20.432 68.83 20.432C67.57 20.432 66.212 20.908 64.756 21.86C63.328 22.784 61.886 24.128 60.43 25.892C58.358 28.384 56.846 30.96 55.894 33.62C54.942 36.252 54.466 39.22 54.466 42.524C54.466 43.756 54.592 44.876 54.844 45.884C55.096 46.892 55.432 47.774 55.852 48.53C56.272 49.286 56.762 49.888 57.322 50.336C57.91 50.784 58.54 51.036 59.212 51.092C60.108 50.896 61.004 50.448 61.9 49.748C62.796 49.02 63.608 48.18 64.336 47.228C65.092 46.248 65.722 45.212 66.226 44.12C66.758 43 67.08 41.936 67.192 40.928C66.408 41.096 65.652 41.264 64.924 41.432C64.224 41.572 63.552 41.642 62.908 41.642C62.068 41.642 61.326 41.432 60.682 41.012C60.066 40.592 59.646 40.018 59.422 39.29C59.926 39.01 60.654 38.716 61.606 38.408C62.586 38.1 63.622 37.82 64.714 37.568C65.806 37.288 66.87 37.064 67.906 36.896C68.97 36.728 69.838 36.644 70.51 36.644ZM85.8144 49.076C85.2824 48.628 84.9184 48.068 84.7224 47.396C84.5544 46.724 84.4704 46.15 84.4704 45.674C84.4704 45.086 84.5404 44.582 84.6804 44.162C84.5684 44.162 84.3164 44.386 83.9244 44.834C83.5324 45.282 83.0984 45.814 82.6224 46.43C82.1744 47.046 81.7264 47.648 81.2784 48.236C80.8304 48.824 80.4944 49.258 80.2704 49.538C79.9064 49.93 79.5564 50.238 79.2204 50.462C78.9124 50.686 78.6604 50.812 78.4644 50.84C78.0164 50.812 77.5404 50.714 77.0364 50.546C76.5604 50.406 76.0984 50.196 75.6504 49.916C75.2304 49.636 74.8524 49.3 74.5164 48.908C74.2084 48.516 73.9984 48.068 73.8864 47.564C73.8864 46.78 73.9004 46.136 73.9284 45.632C73.9844 45.128 74.0824 44.582 74.2224 43.994C74.4744 42.93 74.8384 41.726 75.3144 40.382C75.8184 39.038 76.3924 37.722 77.0364 36.434C77.6804 35.118 78.3944 33.9 79.1784 32.78C79.9904 31.632 80.8444 30.736 81.7404 30.092C81.9924 30.092 82.2864 30.12 82.6224 30.176C82.9584 30.204 83.2944 30.274 83.6304 30.386C83.9944 30.498 84.3304 30.638 84.6384 30.806C84.9744 30.946 85.2544 31.142 85.4784 31.394C85.2264 31.674 84.5824 32.612 83.5464 34.208C82.5384 35.804 81.4044 38.1 80.1444 41.096C80.0044 41.404 79.8364 41.852 79.6404 42.44C79.4444 43.028 79.2484 43.644 79.0524 44.288C78.8564 44.932 78.6884 45.562 78.5484 46.178C78.4364 46.794 78.3804 47.284 78.3804 47.648C78.3804 47.872 78.4084 48.04 78.4644 48.152C78.5484 48.264 78.6184 48.348 78.6744 48.404C79.0944 48.236 79.6264 47.774 80.2704 47.018C80.9144 46.262 81.8104 45.1 82.9584 43.532C83.2384 43.14 83.5604 42.692 83.9244 42.188C84.3164 41.684 84.7084 41.152 85.1004 40.592C85.4924 40.004 85.8564 39.402 86.1924 38.786C86.5564 38.17 86.8504 37.554 87.0744 36.938C87.1864 36.602 87.3264 36.21 87.4944 35.762C87.6904 35.286 87.9144 34.796 88.1664 34.292C88.4464 33.788 88.7544 33.284 89.0904 32.78C89.4544 32.248 89.8744 31.758 90.3504 31.31C90.7144 31.31 91.1064 31.352 91.5264 31.436C91.9464 31.52 92.3384 31.632 92.7024 31.772C93.0944 31.884 93.4304 32.024 93.7104 32.192C93.9904 32.332 94.2004 32.486 94.3404 32.654C93.8364 33.886 93.2764 35.104 92.6604 36.308C92.0444 37.512 91.4704 38.702 90.9384 39.878C90.4064 41.026 89.9584 42.174 89.5944 43.322C89.2304 44.47 89.0484 45.59 89.0484 46.682C89.0484 47.27 89.0904 47.788 89.1744 48.236C89.2864 48.656 89.3984 49.02 89.5104 49.328C89.6224 49.608 89.7204 49.846 89.8044 50.042C89.9164 50.238 89.9724 50.406 89.9724 50.546C89.9724 50.574 89.9444 50.616 89.8884 50.672C89.8604 50.7 89.8324 50.714 89.8044 50.714C89.6084 50.714 89.3564 50.672 89.0484 50.588C88.7404 50.504 88.3904 50.378 87.9984 50.21C87.6344 50.07 87.2564 49.902 86.8644 49.706C86.5004 49.51 86.1504 49.3 85.8144 49.076ZM109.844 47.312C109.844 46.08 110.138 44.358 110.726 42.146C111.314 39.906 112.14 37.302 113.204 34.334C114.072 31.954 114.898 29.798 115.682 27.866C116.494 25.906 117.292 24.128 118.076 22.532C117.572 22.392 117.04 22.294 116.48 22.238C115.948 22.154 115.556 22.112 115.304 22.112C114.212 22.112 113.232 22.378 112.364 22.91C111.524 23.442 110.768 24.17 110.096 25.094C109.424 25.99 108.822 27.026 108.29 28.202C107.758 29.35 107.282 30.554 106.862 31.814C107.45 31.758 108.052 31.716 108.668 31.688C109.312 31.66 109.97 31.632 110.642 31.604C110.306 31.912 110.012 32.318 109.76 32.822C109.508 33.298 109.354 33.648 109.298 33.872H108.038C107.73 33.872 107.422 33.872 107.114 33.872C106.806 33.872 106.498 33.886 106.19 33.914C104.79 38.31 103.53 42.146 102.41 45.422C101.318 48.698 100.296 51.498 99.3443 53.822C98.4203 56.174 97.5243 58.092 96.6563 59.576C95.8163 61.088 94.9623 62.264 94.0943 63.104C93.2543 63.972 92.3583 64.574 91.4063 64.91C90.4543 65.246 89.4043 65.414 88.2563 65.414C86.2683 65.414 84.5743 64.742 83.1743 63.398C83.1743 63.202 83.2303 62.992 83.3423 62.768C83.4543 62.544 83.5803 62.39 83.7203 62.306C84.1123 62.782 84.6303 63.146 85.2743 63.398C85.9183 63.678 86.5903 63.818 87.2903 63.818C88.0183 63.818 88.6903 63.65 89.3063 63.314C89.8943 63.006 90.4823 62.474 91.0703 61.718C91.6303 60.962 92.1903 59.968 92.7503 58.736C93.3383 57.504 93.9683 55.978 94.6403 54.158C95.6203 51.47 96.6283 48.418 97.6643 45.002C98.7283 41.586 99.8063 37.974 100.898 34.166C99.8343 34.222 98.9523 34.292 98.2523 34.376C97.5523 34.46 97.0903 34.516 96.8663 34.544C96.7543 34.432 96.6563 34.278 96.5723 34.082C96.5163 33.886 96.4883 33.704 96.4883 33.536C96.9363 33.396 97.5663 33.228 98.3783 33.032C99.1903 32.836 100.198 32.64 101.402 32.444C102.074 30.428 102.816 28.608 103.628 26.984C104.44 25.332 105.308 23.946 106.232 22.826C107.184 21.678 108.192 20.796 109.256 20.18C110.348 19.564 111.524 19.256 112.784 19.256C113.148 19.256 113.596 19.326 114.128 19.466C114.66 19.606 115.206 19.788 115.766 20.012C116.326 20.208 116.872 20.418 117.404 20.642C117.936 20.866 118.384 21.048 118.748 21.188C120.064 18.612 121.338 16.596 122.57 15.14C122.906 15.196 123.312 15.336 123.788 15.56C124.292 15.784 124.782 16.036 125.258 16.316C125.734 16.568 126.154 16.834 126.518 17.114C126.91 17.394 127.162 17.618 127.274 17.786C125.09 20.362 123.172 23.134 121.52 26.102C119.868 29.07 118.356 32.472 116.984 36.308C115.808 39.612 114.912 42.594 114.296 45.254C113.68 47.886 113.372 50.084 113.372 51.848C113.372 52.324 113.372 52.618 113.372 52.73C113.372 52.842 113.386 52.954 113.414 53.066C113.022 53.01 112.686 52.912 112.406 52.772C112.126 52.632 111.944 52.464 111.86 52.268C111.804 52.128 111.65 51.918 111.398 51.638C111.146 51.386 110.922 51.19 110.726 51.05C110.474 50.882 110.264 50.448 110.096 49.748C109.928 49.02 109.844 48.208 109.844 47.312ZM119.837 47.186C119.837 46.934 119.851 46.626 119.879 46.262C119.935 45.87 120.019 45.366 120.131 44.75C120.243 44.106 120.383 43.336 120.551 42.44C120.747 41.544 120.985 40.466 121.265 39.206C121.321 38.926 121.447 38.478 121.643 37.862C121.839 37.246 122.091 36.602 122.399 35.93C122.735 35.23 123.127 34.558 123.575 33.914C124.051 33.27 124.611 32.794 125.255 32.486C125.731 32.598 126.361 32.892 127.145 33.368C127.929 33.816 128.601 34.446 129.161 35.258C128.517 35.986 127.971 36.714 127.523 37.442C127.103 38.17 126.711 38.926 126.347 39.71C126.011 40.494 125.689 41.306 125.381 42.146C125.101 42.986 124.779 43.868 124.415 44.792C124.107 45.576 123.827 46.388 123.575 47.228C123.323 48.04 123.183 48.754 123.155 49.37C123.155 49.874 123.141 50.224 123.113 50.42C123.113 50.644 123.043 50.756 122.903 50.756C122.791 50.756 122.567 50.686 122.231 50.546C121.895 50.406 121.545 50.196 121.181 49.916C120.845 49.608 120.537 49.23 120.257 48.782C119.977 48.334 119.837 47.802 119.837 47.186ZM127.859 28.958C127.859 28.79 127.901 28.538 127.985 28.202C127.845 28.062 127.719 27.852 127.607 27.572C127.523 27.292 127.481 27.04 127.481 26.816C127.481 26.564 127.509 26.228 127.565 25.808C127.649 25.36 127.747 24.884 127.859 24.38C127.971 23.876 128.111 23.358 128.279 22.826C128.447 22.266 128.615 21.762 128.783 21.314C129.119 21.314 129.525 21.412 130.001 21.608C130.505 21.776 131.009 22.014 131.513 22.322C132.017 22.602 132.479 22.924 132.899 23.288C133.319 23.624 133.641 23.946 133.865 24.254C133.557 24.562 133.151 24.996 132.647 25.556C132.143 26.088 131.653 26.662 131.177 27.278C130.701 27.866 130.267 28.426 129.875 28.958C129.483 29.49 129.231 29.868 129.119 30.092C128.783 30.036 128.489 29.896 128.237 29.672C127.985 29.42 127.859 29.182 127.859 28.958ZM142.782 49.748C142.474 50.224 141.984 50.602 141.312 50.882C140.668 51.19 140.052 51.372 139.464 51.428C138.988 50.868 138.456 50.112 137.868 49.16C137.28 48.18 136.72 47.046 136.188 45.758C134.76 47.046 133.332 48.222 131.904 49.286C130.476 50.322 129.146 51.204 127.914 51.932C127.606 51.876 127.354 51.708 127.158 51.428C126.962 51.148 126.85 50.784 126.822 50.336C127.382 50.028 128.04 49.622 128.796 49.118C129.58 48.614 130.364 48.068 131.148 47.48C131.96 46.864 132.73 46.234 133.458 45.59C134.214 44.918 134.858 44.274 135.39 43.658C134.914 42.538 134.466 41.39 134.046 40.214C133.654 39.01 133.304 37.862 132.996 36.77C132.716 35.65 132.492 34.642 132.324 33.746C132.156 32.822 132.072 32.08 132.072 31.52C132.072 31.128 132.114 30.876 132.198 30.764C132.31 30.624 132.548 30.554 132.912 30.554C133.192 30.554 133.528 30.582 133.92 30.638C134.34 30.694 134.76 30.764 135.18 30.848C135.6 30.932 136.02 31.03 136.44 31.142C136.86 31.226 137.224 31.324 137.532 31.436C137.476 31.744 137.448 32.01 137.448 32.234C137.448 32.458 137.448 32.78 137.448 33.2C137.448 34.292 137.532 35.412 137.7 36.56C137.896 37.68 138.204 38.898 138.624 40.214C139.772 38.898 140.836 37.442 141.816 35.846C142.796 34.222 143.79 32.29 144.798 30.05C145.498 30.19 146.1 30.4 146.604 30.68C147.108 30.932 147.43 31.212 147.57 31.52C147.262 32.808 146.394 34.432 144.966 36.392C143.538 38.352 141.718 40.438 139.506 42.65C139.898 43.714 140.374 44.848 140.934 46.052C141.494 47.228 142.11 48.46 142.782 49.748Z" fill="white"/>
</svg>
